<svg viewBox="0 0 1057.658 265.652" xmlns="http://www.w3.org/2000/svg" xmlns:xlink="http://www.w3.org/1999/xlink"><defs><radialGradient id="l" cx="152.9" cy="886.25" r="66.244" gradientTransform="matrix(1.4563 0 0 2.2525 -507.97 -2442.9)" gradientUnits="userSpaceOnUse" xlink:href="#a"/><radialGradient id="k" cx="-289.32" cy="-423.35" r="99.436" gradientTransform="matrix(1.0472 -.00531 .00138 .1444 18.569 -369)" gradientUnits="userSpaceOnUse" xlink:href="#b"/><radialGradient id="j" cx="-289.32" cy="-423.35" r="99.436" gradientTransform="matrix(.74804 -.0073 .00099 .19844 -67.567 -599.06)" gradientUnits="userSpaceOnUse" xlink:href="#b"/><radialGradient id="i" cx="-289.32" cy="-423.35" r="99.436" gradientTransform="matrix(.53785 -.00474 .00071 .12896 -127.56 -579.62)" gradientUnits="userSpaceOnUse" xlink:href="#b"/><radialGradient id="ba" cx="154.65" cy="-2310.2" r="66.244" gradientTransform="matrix(.95514 0 0 .77089 581.28 1120)" gradientUnits="userSpaceOnUse" xlink:href="#a"/><radialGradient id="az" cx="-582.55" cy="-496" r="65.009" gradientTransform="matrix(1.2221 0 0 .43142 1439.8 -358.71)" gradientUnits="userSpaceOnUse" xlink:href="#a"/><radialGradient id="ay" cx="152.9" cy="886.25" r="66.244" gradientTransform="matrix(1.3757 0 0 1.3291 523.54 -1606.3)" gradientUnits="userSpaceOnUse" xlink:href="#a"/><radialGradient id="ax" cx="154.26" cy="25.652" r="66.244" gradientTransform="matrix(1.9976 0 0 .29644 433.56 -419.11)" gradientUnits="userSpaceOnUse" xlink:href="#a"/><radialGradient id="aq" cx="154.26" cy="25.652" r="66.244" gradientTransform="matrix(2.2363 0 0 .29644 -2297.6 -553.94)" gradientUnits="userSpaceOnUse" xlink:href="#a"/><radialGradient id="ap" cx="152.9" cy="886.25" r="66.244" gradientTransform="matrix(1.3757 0 0 3.7812 -2162.1 -3966.8)" gradientUnits="userSpaceOnUse" xlink:href="#a"/><radialGradient id="ao" cx="155.57" cy="-469.58" r="66.244" gradientTransform="matrix(1.355 0 0 .23884 -2164 -866.24)" gradientUnits="userSpaceOnUse" xlink:href="#a"/><radialGradient id="an" cx="-820.08" cy="-748.45" r="82.007" gradientTransform="matrix(1.0764 0 0 .15591 -1073.5 -824.35)" gradientUnits="userSpaceOnUse" xlink:href="#b"/><radialGradient id="am" cx="-820.08" cy="-748.45" r="82.007" gradientTransform="matrix(1.2804 0 0 .18488 -904.48 -759.27)" gradientUnits="userSpaceOnUse" xlink:href="#b"/><radialGradient id="al" cx="-813.8" cy="-931.85" r="128.44" gradientTransform="matrix(.89863 .01994 -.0391 1.7622 -1257.5 495.93)" gradientUnits="userSpaceOnUse" xlink:href="#b"/><radialGradient id="g" cx="-805.84" cy="-986.42" r="25.199" gradientTransform="matrix(1.2074 0 0 .6996 166.38 -296.08)" gradientUnits="userSpaceOnUse" xlink:href="#b"/><radialGradient id="ak" cx="154.26" cy="25.652" r="66.244" gradientTransform="matrix(2.2363 0 0 .29644 -1161.1 -361.31)" gradientUnits="userSpaceOnUse" xlink:href="#a"/><radialGradient id="aj" cx="152.9" cy="886.25" r="66.244" gradientTransform="matrix(1.3757 0 0 3.7812 -1025.6 -3774.2)" gradientUnits="userSpaceOnUse" xlink:href="#a"/><radialGradient id="ai" cx="155.57" cy="-469.58" r="66.244" gradientTransform="matrix(1.355 0 0 .23884 -1027.5 -673.6)" gradientUnits="userSpaceOnUse" xlink:href="#a"/><radialGradient id="ah" cx="-820.08" cy="-748.45" r="82.007" gradientTransform="matrix(1.0764 0 0 .15591 63.024 -631.71)" gradientUnits="userSpaceOnUse" xlink:href="#b"/><radialGradient id="ag" cx="-820.08" cy="-748.45" r="82.007" gradientTransform="matrix(1.2804 0 0 .18488 232.08 -566.63)" gradientUnits="userSpaceOnUse" xlink:href="#b"/><radialGradient id="af" cx="-813.8" cy="-931.85" r="128.44" gradientTransform="matrix(.89863 .01994 -.0391 1.7622 -120.99 688.57)" gradientUnits="userSpaceOnUse" xlink:href="#b"/><radialGradient id="ae" cx="-822.11" cy="-1076.5" r="62.19" gradientTransform="matrix(.02065 1.5689 -1.0556 .0139 -1937.7 247.86)" gradientUnits="userSpaceOnUse" xlink:href="#b"/><radialGradient id="ad" cx="152.9" cy="886.25" r="66.244" gradientTransform="matrix(1.3757 0 0 1.3291 -27.196 -1692.5)" gradientUnits="userSpaceOnUse" xlink:href="#a"/><radialGradient id="ac" cx="154.26" cy="25.652" r="66.244" gradientTransform="matrix(2.2363 0 0 .29644 -162.7 -452.81)" gradientUnits="userSpaceOnUse" xlink:href="#a"/><radialGradient id="ab" cx="154.65" cy="-2310.2" r="66.244" gradientTransform="matrix(.95514 0 0 .77089 33.762 799.35)" gradientUnits="userSpaceOnUse" xlink:href="#a"/><radialGradient id="aa" cx="158.47" cy="-2139.2" r="66.244" gradientTransform="matrix(1.2593 .00022 -.0003 1.6796 -15.884 2750.5)" gradientUnits="userSpaceOnUse" xlink:href="#a"/><radialGradient id="z" cx="177.58" cy="-695.9" r="80.203" gradientTransform="matrix(1.0644 -.00692 .00095 .14623 -10.766 -577.73)" gradientUnits="userSpaceOnUse" xlink:href="#b"/><radialGradient id="y" cx="177.33" cy="-418.87" r="80.203" gradientTransform="matrix(1.3965 -.00692 .00072 .14623 -69.757 -577.73)" gradientUnits="userSpaceOnUse" xlink:href="#b"/><radialGradient id="x" cx="177.83" cy="-969.13" r="80.203" gradientTransform="matrix(1.0644 -.00692 .00095 .14623 -10.766 -577.73)" gradientUnits="userSpaceOnUse" xlink:href="#b"/><radialGradient id="aw" cx="-813.8" cy="-931.85" r="128.44" gradientTransform="matrix(-.89863 .01994 .0391 1.7622 -1722.1 590.28)" gradientUnits="userSpaceOnUse" xlink:href="#b"/><radialGradient id="av" cx="-820.08" cy="-748.45" r="82.007" gradientTransform="matrix(1.2804 0 0 .18488 2075.2 -664.91)" gradientUnits="userSpaceOnUse" xlink:href="#b"/><radialGradient id="au" cx="-820.08" cy="-748.45" r="82.007" gradientTransform="matrix(1.0764 0 0 .15591 1906.1 -730)" gradientUnits="userSpaceOnUse" xlink:href="#b"/><radialGradient id="at" cx="155.57" cy="-469.58" r="66.244" gradientTransform="matrix(1.355 0 0 .23884 815.64 -771.89)" gradientUnits="userSpaceOnUse" xlink:href="#a"/><radialGradient id="as" cx="152.9" cy="886.25" r="66.244" gradientTransform="matrix(-1.3757 0 0 3.7812 -817.54 -3872.5)" gradientUnits="userSpaceOnUse" xlink:href="#a"/><radialGradient id="ar" cx="154.26" cy="25.652" r="66.244" gradientTransform="matrix(2.2363 0 0 .29644 682.05 -459.59)" gradientUnits="userSpaceOnUse" xlink:href="#a"/><radialGradient id="w" cx="152.9" cy="886.25" r="66.244" gradientTransform="matrix(-1.3757 0 0 1.3291 -1134.7 -1697)" gradientUnits="userSpaceOnUse" xlink:href="#a"/><radialGradient id="v" cx="154.26" cy="25.652" r="66.244" gradientTransform="matrix(2.2363 0 0 .29644 999.16 -457.25)" gradientUnits="userSpaceOnUse" xlink:href="#a"/><radialGradient id="u" cx="154.65" cy="-2310.2" r="66.244" gradientTransform="matrix(-.95514 0 0 .77089 -1196.2 793.66)" gradientUnits="userSpaceOnUse" xlink:href="#a"/><radialGradient id="t" cx="158.47" cy="-2139.2" r="66.244" gradientTransform="matrix(-1.2593 .00022 .0003 1.6796 -1146 2746.1)" gradientUnits="userSpaceOnUse" xlink:href="#a"/><radialGradient id="s" cx="177.33" cy="-418.87" r="80.203" gradientTransform="matrix(1.3965 -.00692 .00072 .14623 1092.1 -582.17)" gradientUnits="userSpaceOnUse" xlink:href="#b"/><radialGradient id="r" cx="177.58" cy="-695.9" r="80.203" gradientTransform="matrix(1.0644 -.00692 .00095 .14623 1151.1 -582.17)" gradientUnits="userSpaceOnUse" xlink:href="#b"/><radialGradient id="q" cx="177.83" cy="-969.13" r="80.203" gradientTransform="matrix(1.0644 -.00692 .00095 .14623 1151.1 -582.17)" gradientUnits="userSpaceOnUse" xlink:href="#b"/><radialGradient id="p" cx="-289.32" cy="-423.35" r="99.436" gradientTransform="matrix(.53785 -.00474 .00071 .12896 1790.5 -586.9)" gradientUnits="userSpaceOnUse" xlink:href="#b"/><radialGradient id="o" cx="-289.32" cy="-423.35" r="99.436" gradientTransform="matrix(.74804 -.0073 .00099 .19844 1850.5 -606.33)" gradientUnits="userSpaceOnUse" xlink:href="#b"/><radialGradient id="n" cx="-289.32" cy="-423.35" r="99.436" gradientTransform="matrix(1.0472 -.00531 .00138 .1444 1936.6 -376.27)" gradientUnits="userSpaceOnUse" xlink:href="#b"/><radialGradient id="m" cx="152.9" cy="886.25" r="66.244" gradientTransform="matrix(-1.4563 0 0 2.2525 -1410.1 -2450.1)" gradientUnits="userSpaceOnUse" xlink:href="#a"/><radialGradient id="bz" cx="154.26" cy="25.652" r="66.244" gradientTransform="matrix(2.2363 0 0 .29644 388.96 -455.32)" gradientUnits="userSpaceOnUse" xlink:href="#a"/><radialGradient id="by" cx="152.9" cy="886.25" r="66.244" gradientTransform="matrix(-1.3757 0 0 3.7812 -524.46 -3868.2)" gradientUnits="userSpaceOnUse" xlink:href="#a"/><radialGradient id="bx" cx="155.57" cy="-469.58" r="66.244" gradientTransform="matrix(1.355 0 0 .23884 522.55 -767.62)" gradientUnits="userSpaceOnUse" xlink:href="#a"/><radialGradient id="bw" cx="-820.08" cy="-748.45" r="82.007" gradientTransform="matrix(1.0764 0 0 .15591 1613 -725.73)" gradientUnits="userSpaceOnUse" xlink:href="#b"/><radialGradient id="bv" cx="-820.08" cy="-748.45" r="82.007" gradientTransform="matrix(1.2804 0 0 .18488 1782.1 -660.64)" gradientUnits="userSpaceOnUse" xlink:href="#b"/><radialGradient id="bu" cx="-813.8" cy="-931.85" r="128.44" gradientTransform="matrix(-.89863 .01994 .0391 1.7622 -1429 594.55)" gradientUnits="userSpaceOnUse" xlink:href="#b"/><radialGradient id="bt" cx="-822.11" cy="-1076.5" r="62.19" gradientTransform="matrix(-.02065 1.5689 1.0556 .0139 387.74 153.85)" gradientUnits="userSpaceOnUse" xlink:href="#b"/><radialGradient id="bs" cx="154.26" cy="25.652" r="66.244" gradientTransform="matrix(1.9976 0 0 .29644 1838.5 -418.38)" gradientUnits="userSpaceOnUse" xlink:href="#a"/><radialGradient id="br" cx="154.65" cy="-2310.2" r="66.244" gradientTransform="matrix(-.95514 0 0 .77089 -1986.3 1120.8)" gradientUnits="userSpaceOnUse" xlink:href="#a"/><radialGradient id="bq" cx="-582.55" cy="-496" r="65.009" gradientTransform="matrix(-1.2221 0 0 .43142 -2844.8 -357.99)" gradientUnits="userSpaceOnUse" xlink:href="#a"/><radialGradient id="bp" cx="152.9" cy="886.25" r="66.244" gradientTransform="matrix(-1.3757 0 0 1.3291 -1928.5 -1605.6)" gradientUnits="userSpaceOnUse" xlink:href="#a"/><radialGradient id="bo" cx="-388.36" cy="-695.49" r="25.15" gradientTransform="matrix(2.0617 -2.4662 .92674 1.464 2106.8 -538.41)" gradientUnits="userSpaceOnUse" xlink:href="#b"/><radialGradient id="bn" cx="-388.36" cy="-695.49" r="25.15" gradientTransform="matrix(2.1278 -.76598 .19245 1.1829 1708.8 -222.96)" gradientUnits="userSpaceOnUse" xlink:href="#b"/><radialGradient id="bm" cx="-310.31" cy="-467.07" r="85.877" gradientTransform="matrix(.51786 -1.9234 .79723 .30264 1252.5 -908.28)" gradientUnits="userSpaceOnUse" xlink:href="#a"/><radialGradient id="bl" cx="-395.67" cy="-702.5" r="25.15" gradientTransform="matrix(.87922 .0051 .00931 .30224 996.72 -505.86)" gradientUnits="userSpaceOnUse" xlink:href="#b"/><radialGradient id="bk" cx="-334.3" cy="-764.84" r="94.433" gradientTransform="matrix(1.49 -.21479 .02913 .19702 1219.6 -697.67)" gradientUnits="userSpaceOnUse" xlink:href="#a"/><radialGradient id="bj" cx="380.8" cy="-195.18" r="66.244" gradientTransform="matrix(2.0964 .00356 -.00118 .32193 -73.79 -370.95)" gradientUnits="userSpaceOnUse" xlink:href="#a"/><radialGradient id="bi" cx="-1890.6" cy="-704.36" r="37.579" gradientTransform="matrix(2.1255 .17438 -.0483 .58885 2106 46.972)" gradientUnits="userSpaceOnUse" xlink:href="#h"/><radialGradient id="bh" cx="-1817.4" cy="-512.96" r="38.487" gradientTransform="matrix(.68482 .43252 -.63514 1.0056 -892.97 799.28)" gradientUnits="userSpaceOnUse" xlink:href="#h"/><radialGradient id="bg" cx="-388.36" cy="-695.49" r="25.15" gradientTransform="matrix(-2.0617 -2.4662 -.92674 1.464 -3265.3 -538.51)" gradientUnits="userSpaceOnUse" xlink:href="#b"/><radialGradient id="bf" cx="-388.36" cy="-695.49" r="25.15" gradientTransform="matrix(-2.1278 -.76598 -.19245 1.1829 -2867.2 -223.06)" gradientUnits="userSpaceOnUse" xlink:href="#b"/><radialGradient id="be" cx="-310.31" cy="-467.07" r="85.877" gradientTransform="matrix(-.41624 -2.1593 -.8154 .25271 -2387.9 -1004.9)" gradientUnits="userSpaceOnUse" xlink:href="#a"/><radialGradient id="bd" cx="-395.67" cy="-702.5" r="25.15" gradientTransform="matrix(-.87922 .0051 -.00931 .30224 -2155.1 -505.96)" gradientUnits="userSpaceOnUse" xlink:href="#b"/><radialGradient id="bc" cx="-334.3" cy="-764.84" r="94.433" gradientTransform="matrix(-1.49 -.21479 -.02913 .19702 -2378.1 -697.77)" gradientUnits="userSpaceOnUse" xlink:href="#a"/><radialGradient id="bb" cx="380.8" cy="-195.18" r="66.244" gradientTransform="matrix(2.0964 .00356 -.00118 .32193 1084.6 -371.05)" gradientUnits="userSpaceOnUse" xlink:href="#a"/><linearGradient id="h"><stop stop-color="#c37f00" stop-opacity=".698" offset="0"/><stop stop-color="#9e6700" stop-opacity="0" offset="1"/></linearGradient><linearGradient id="f"><stop stop-color="#502d16" stop-opacity="0" offset="0"/><stop stop-color="#502d16" stop-opacity=".498" offset=".5"/><stop stop-color="#502d16" stop-opacity="0" offset="1"/></linearGradient><linearGradient id="d"><stop stop-color="#502d16" offset="0"/><stop stop-color="#502d16" stop-opacity="0" offset="1"/></linearGradient><linearGradient id="e"><stop stop-color="#b67700" offset="0"/><stop stop-color="#ffab0a" offset=".5"/><stop stop-color="#ea9900" offset=".75"/><stop stop-color="#b67700" offset="1"/></linearGradient><linearGradient id="b"><stop stop-color="#fff" offset="0"/><stop stop-color="#fff" stop-opacity="0" offset="1"/></linearGradient><linearGradient id="c"><stop stop-color="#fff" stop-opacity="0" offset="0"/><stop stop-color="#fff" stop-opacity=".069" offset=".267"/><stop stop-color="#fff" stop-opacity=".866" offset=".57"/><stop stop-color="#fff" stop-opacity=".045" offset=".856"/><stop stop-color="#fff" stop-opacity="0" offset="1"/></linearGradient><linearGradient id="a"><stop stop-color="#fff" offset="0"/><stop stop-color="#fff" stop-opacity="0" offset=".747"/><stop stop-color="#fff" stop-opacity="0" offset="1"/></linearGradient><linearGradient id="di" x1="-1977.2" x2="-1907.1" y1="-659.84" y2="-663.77" gradientUnits="userSpaceOnUse"><stop stop-color="#7c5000" stop-opacity=".698" offset="0"/><stop stop-color="#9e6700" stop-opacity="0" offset="1"/></linearGradient><linearGradient id="cb" x1="-419" x2="-182.66" gradientUnits="userSpaceOnUse" xlink:href="#c"/><linearGradient id="ca" x1="-387.48" x2="-208.76" gradientUnits="userSpaceOnUse" xlink:href="#c"/><linearGradient id="de" x1="612.95" x2="824.16" gradientUnits="userSpaceOnUse" xlink:href="#c"/><linearGradient id="cw" x1="-2170" x2="-1776.6" y1="-468.31" y2="-464.44" gradientUnits="userSpaceOnUse" xlink:href="#c"/><linearGradient id="cv" x1="-2070.5" x2="-1859.2" gradientUnits="userSpaceOnUse" xlink:href="#c"/><linearGradient id="cu" x1="-1033.5" x2="-640.07" y1="-275.68" y2="-271.8" gradientUnits="userSpaceOnUse" xlink:href="#c"/><linearGradient id="ct" x1="-933.91" x2="-722.69" gradientUnits="userSpaceOnUse" xlink:href="#c"/><linearGradient id="cs" x1="64.452" x2="275.66" gradientUnits="userSpaceOnUse" xlink:href="#c"/><linearGradient id="cr" x1="-35.125" x2="358.28" y1="-367.19" y2="-363.31" gradientUnits="userSpaceOnUse" xlink:href="#c"/><linearGradient id="dd" x1="909.19" x2="1120.4" gradientUnits="userSpaceOnUse" xlink:href="#c"/><linearGradient id="dc" x1="809.62" x2="1203" y1="-373.96" y2="-370.08" gradientUnits="userSpaceOnUse" xlink:href="#c"/><linearGradient id="db" x1="-1107.8" x2="-946.49" y1="-788.85" y2="-790.22" gradientUnits="userSpaceOnUse" xlink:href="#e"/><linearGradient id="da" x1="-1032.3" x2="-1033.4" y1="-407.18" y2="-431.44" gradientUnits="userSpaceOnUse" xlink:href="#d"/><linearGradient id="cz" x1="-1031.1" x2="-1032" y1="-772.79" y2="-795.86" gradientUnits="userSpaceOnUse" xlink:href="#d"/><linearGradient id="cy" x1="-737.65" x2="-738.58" y1="-768.34" y2="-791.41" gradientTransform="matrix(.81507 0 0 .87881 -428.51 -146.08)" gradientUnits="userSpaceOnUse" xlink:href="#d"/><linearGradient id="cx" x1="-737.65" x2="-738.58" y1="-768.34" y2="-791.41" gradientTransform="matrix(.67669 0 0 .6309 -530.46 -375.5)" gradientUnits="userSpaceOnUse" xlink:href="#d"/><linearGradient id="cq" x1="-737.65" x2="-738.58" y1="-768.34" y2="-791.41" gradientTransform="matrix(1.1427 0 0 1 -508.05 363.46)" gradientUnits="userSpaceOnUse" xlink:href="#d"/><linearGradient id="cp" x1="-737.65" x2="-738.58" y1="-768.34" y2="-791.41" gradientTransform="matrix(.68865 0 0 .93607 -838.83 23.997)" gradientUnits="userSpaceOnUse" xlink:href="#d"/><linearGradient id="co" x1="-737.65" x2="-738.58" y1="-768.34" y2="-791.41" gradientTransform="matrix(.82349 0 0 .96271 -739.52 84.021)" gradientUnits="userSpaceOnUse" xlink:href="#d"/><linearGradient id="cn" x2="0" y1="-938.14" y2="-919.16" gradientUnits="userSpaceOnUse" xlink:href="#f"/><linearGradient id="cm" x1="-1348.6" x2="-1349.5" y1="-607.79" y2="-630.85" gradientUnits="userSpaceOnUse" xlink:href="#d"/><linearGradient id="cl" x1="1226.3" x2="1437.5" gradientUnits="userSpaceOnUse" xlink:href="#c"/><linearGradient id="ck" x1="1126.7" x2="1520.1" y1="-371.63" y2="-367.75" gradientUnits="userSpaceOnUse" xlink:href="#c"/><linearGradient id="cj" x1="-1428.2" x2="-1265.6" y1="-618.37" y2="-616.71" gradientUnits="userSpaceOnUse" xlink:href="#e"/><linearGradient id="ci" x1="-737.65" x2="-738.58" y1="-768.34" y2="-791.41" gradientTransform="matrix(.90185 0 0 .5718 -970.93 39.032)" gradientUnits="userSpaceOnUse" xlink:href="#d"/><linearGradient id="ch" x1="-737.65" x2="-738.58" y1="-768.34" y2="-791.41" gradientTransform="matrix(.52136 0 0 .5718 -1253.4 -176.43)" gradientUnits="userSpaceOnUse" xlink:href="#d"/><linearGradient id="cg" x1="-737.65" x2="-738.58" y1="-768.34" y2="-791.41" gradientTransform="matrix(.70953 0 0 1 -1113.8 118.23)" gradientUnits="userSpaceOnUse" xlink:href="#d"/><linearGradient id="cf" x2="0" y1="-712.8" y2="-701.6" gradientUnits="userSpaceOnUse" xlink:href="#f"/><linearGradient id="ce" x1="1530.5" x2="1709.3" gradientUnits="userSpaceOnUse" xlink:href="#c"/><linearGradient id="cd" x1="1499" x2="1735.4" gradientUnits="userSpaceOnUse" xlink:href="#c"/><linearGradient id="cc" x1="-1702.3" x2="-1568" y1="-622.19" y2="-623.78" gradientUnits="userSpaceOnUse" xlink:href="#e"/><linearGradient id="dv" x1="-813.76" x2="-652.45" y1="-772.05" y2="-777.62" gradientUnits="userSpaceOnUse" xlink:href="#e"/><linearGradient id="du" x1="-737.65" x2="-738.58" y1="-768.34" y2="-791.41" gradientUnits="userSpaceOnUse" xlink:href="#d"/><linearGradient id="dt" x1="516.53" x2="909.94" y1="-369.69" y2="-365.81" gradientUnits="userSpaceOnUse" xlink:href="#c"/><linearGradient id="ds" x1="616.11" x2="827.32" gradientUnits="userSpaceOnUse" xlink:href="#c"/><linearGradient id="dr" x1="-737.65" x2="-738.58" y1="-768.34" y2="-791.41" gradientTransform="matrix(.82549 0 0 .93545 -127.46 -96.362)" gradientUnits="userSpaceOnUse" xlink:href="#d"/><linearGradient id="dq" x1="-737.65" x2="-738.58" y1="-768.34" y2="-791.41" gradientTransform="matrix(.68439 0 0 .90318 -231.64 -160.83)" gradientUnits="userSpaceOnUse" xlink:href="#d"/><linearGradient id="dp" x1="-737.65" x2="-738.58" y1="-768.34" y2="-791.41" gradientTransform="matrix(1.1262 0 0 1 91.702 364.29)" gradientUnits="userSpaceOnUse" xlink:href="#d"/><linearGradient id="do" x1="-2142.2" x2="-2143" y1="-383.57" y2="-404.39" gradientUnits="userSpaceOnUse" xlink:href="#d"/><linearGradient id="dn" x2="0" y1="-589.56" y2="-579.36" gradientUnits="userSpaceOnUse" xlink:href="#f"/><linearGradient id="dm" x1="2017.9" x2="2229.1" gradientUnits="userSpaceOnUse" xlink:href="#c"/><linearGradient id="dl" x1="-2199.9" x2="-2067.7" y1="-534.73" y2="-535.21" gradientUnits="userSpaceOnUse" xlink:href="#e"/><linearGradient id="dk" x1="-736.05" x2="-735.89" y1="-927.18" y2="-916.99" gradientTransform="matrix(.95771 0 0 .55106 -1436.9 -15.977)" gradientUnits="userSpaceOnUse" xlink:href="#d"/><linearGradient id="dj" x1="542.4" x2="868.51" y1="-362.29" y2="-359.17" gradientUnits="userSpaceOnUse" xlink:href="#c"/><linearGradient id="dh" x1="-1886.1" x2="-1887" y1="-389.42" y2="-412.48" gradientUnits="userSpaceOnUse" xlink:href="#d"/><linearGradient id="dg" x1="1700.8" x2="2026.9" y1="-362.39" y2="-359.27" gradientUnits="userSpaceOnUse" xlink:href="#c"/><linearGradient id="df" x1="-1968.5" x2="-1763.1" y1="-601.99" y2="-613.08" gradientUnits="userSpaceOnUse" xlink:href="#e"/></defs><path d="M834.899 114.506c-1.12 0-2.018.898-2.018 2.018v30.3c0 1.12.898 2.018 2.018 2.018h2.601a9.74 9.74 0 0 0-3.402 7.429v1.76c0 5.17 3.97 9.373 9.04 9.744-1.118 1.059-1.849 2.827-1.849 4.838 0 2.698 1.312 4.963 3.116 5.658-.208 17.637-6.968 34.393-13.542 51.183a8.842 8.842 0 0 0-4.472 7.706v1.593a8.838 8.838 0 0 0 3.77 7.26h-3.463c-.63 0-1.138.508-1.138 1.138v17.045c0 .63.508 1.137 1.138 1.137h64.794c.63 0 1.138-.507 1.138-1.137V247.15c0-.63-.507-1.137-1.138-1.137h-4.975a8.834 8.834 0 0 0 3.779-7.261v-1.593a8.97 8.97 0 0 0-.208-1.87h.02c-.012-.022-.019-.046-.03-.069a8.812 8.812 0 0 0-1.83-3.739c-9.84-20.958-11.128-36.694-13.81-53.279 1.721-.764 2.958-2.97 2.958-5.589 0-2.062-.771-3.868-1.939-4.916a9.76 9.76 0 0 0 8.29-9.664v-1.761a9.744 9.744 0 0 0-3.413-7.43h1.613c1.12 0 2.018-.897 2.018-2.017v-30.3c0-1.12-.898-2.018-2.018-2.018H834.9z"/><path d="M-384.16-391.5h201.51v55.006h-201.51z" fill="url('#cb')" opacity=".376" transform="translate(948.819 370.693) scale(.31655)"/><path d="m-324.36-595.71 82.227 2.785c-3.467 68.795 48.262 140.24 48.823 146.11l-187.56.27c54.286-76.899 67.014-139.88 56.512-149.17z" fill="url('#l')" opacity=".515" transform="translate(948.819 370.693) scale(.31655)"/><path d="M-350.55-443.48h140.52a29.174 14.359 0 0 1 29.174 14.359 29.174 14.359 0 0 1-29.174 14.359h-140.52a29.174 14.359 0 0 1-29.174-14.359 29.174 14.359 0 0 1 29.174-14.359" fill="url('#k')" opacity=".515" transform="translate(948.819 370.693) scale(.31655)"/><path d="M-331.25-701.41h100.38a20.841 19.733 0 0 1 20.841 19.733 20.841 19.733 0 0 1-20.841 19.733h-100.38a20.841 19.733 0 0 1-20.841-19.733 20.841 19.733 0 0 1 20.841-19.733" fill="url('#j')" opacity=".515" transform="translate(948.819 370.693) scale(.31655)"/><path d="M-317.15-646.14h72.177a14.985 12.824 0 0 1 14.985 12.824 14.985 12.824 0 0 1-14.985 12.824h-72.177a14.985 12.824 0 0 1-14.985-12.824 14.985 12.824 0 0 1 14.985-12.824" fill="url('#i')" opacity=".515" transform="translate(948.819 370.693) scale(.31655)"/><path d="M-361.13-806.03h152.37v97.995h-152.37z" fill="url('#ca')" opacity=".376" transform="translate(948.819 370.693) scale(.31655)"/><path d="M963.048 111.43c-4.359 5.574-7.37 2.672-8.596 5.831s-37.41 6.804-42.931 8.068c-2.387-.492-12.264 8.976-4.293 11.376 2.633.793 3.68 3.155 3.68 3.155-1.59 1.23-3.818 1.47-4.293 4.422 0 0 .508 4.148 2.453 5.688 2.578 2.042 15.939-.706 17.173-.633 8.096.477 10.71 13.455 8.982 14.047 0 0-12.74 14.432-18.795 20.704-11.36 11.77-11.224 33.055-.613 36.641 4.99 1.687 3.155 6.647 2.591 7.914h-1.058c-7.859 2.501-9.378 5.44-9.23 10.891.188 3.564.951 5.342 5.926 7.983h-5.065a2.379 2.379 0 0 0-2.384 2.384v13.048a2.379 2.379 0 0 0 2.384 2.384h65.456a2.379 2.379 0 0 0 2.384-2.384v-13.048a2.379 2.379 0 0 0-2.384-2.384h-4.728c3.47-1.326 5.915-3.396 5.915-7.666.455-6.556-2.505-9.87-9.229-11.208h-.316c-.196-3.073-1.198-24.25 6.172-54.032 4.851-19.6 6.133-27.17 7.36-29.696s-.758-17.69-3.68-22.743c-2.518-4.353-6.132-14.724-12.88-10.743z" fill-rule="evenodd"/><path d="M639.19-446.31h171.08a16.715 16.715 0 0 1 16.715 16.715 16.715 16.715 0 0 1-16.715 16.715H639.19a16.715 16.715 0 0 1-16.715-16.715 16.715 16.715 0 0 1 16.715-16.715" fill="url('#bj')" opacity=".515" transform="translate(712.72 370.89) scale(.31655)"/><path d="M624.52-386.6h198.61a4.255 4.255 0 0 1 4.255 4.255v40.104a4.255 4.255 0 0 1-4.255 4.255H624.52a4.255 4.255 0 0 1-4.255-4.255v-40.104a4.255 4.255 0 0 1 4.255-4.255" fill="url('#dj')" opacity=".356" transform="translate(712.72 370.89) scale(.31655)"/><path d="M624.35-774.08s-13.609 9.003-16.286 15.28c-3.346 7.847 10.875 8.673 13.384 14.867s7.11-4.543 40.989-3.717 102.89-.413 113.77-11.15 37.643-26.845 26.35-38.822-28.701-5.034-38.061-.413c-12.548 6.195-140.98 23.54-140.14 23.953z" fill="url('#bk')" fill-rule="evenodd" opacity=".712" transform="translate(712.72 370.89) scale(.31655)"/><path d="M629.31-730.9s-14.565 4.024-10.446 14.876 16.884 13.289 26.348 10.985 44.431-13.207 40.122-18.85-59.651-7.562-56.024-7.01z" fill="url('#bl')" fill-rule="evenodd" opacity=".546" transform="translate(712.72 370.89) scale(.31655)"/><path d="M702.69-612.71c-2.463-24.363 91.276-42.138 115.72-.749-31.115 107.94-31.604 127.57-28.916 167.17h-139.45c-21.721-102.55 68.611-148.1 52.64-166.42z" fill="url('#bm')" opacity=".508" transform="translate(712.72 370.89) scale(.31655)"/><path d="M711.03-792.77s-29.201 13.516-20.943 49.967 33.85 44.637 52.825 36.897 89.079-44.362 80.438-63.316-119.59-25.398-112.32-23.548z" fill="url('#bn')" fill-rule="evenodd" opacity=".217" transform="translate(712.72 370.89) scale(.31655)"/><path d="m741.96-662.81-34.812 6c-5.998 6.746-51.24 57.636-59.5 66.531-15.975 17.038-27.08 40.156-28.551 63.364 23.205 13.87 47.781 5.759 60.801-11.177 14.987-19.495 60.518-90.707 62.062-124.72zm-34.812 6 3.531-3.969-4.062 4.063.531-.094z" fill="url('#bo')" fill-rule="evenodd" opacity=".464" transform="translate(712.72 370.89) scale(.31655)"/><path d="M1020.638 149.591c-11.117 0-20.14 9.014-20.14 20.13 0 6.362 2.956 12.038 7.567 15.73h-.446c-.452 0-10.195.033-10.248 14.056v3.205c0 .77.616 1.385 1.385 1.385h9.536c-.49.26-.82.737-.82 1.296 1.74 10.798-3.64 20.476-13.726 29.1-.457.46-.537.576-1.806 1.507-2.051 4.082-2.014 8.164 0 12.246 0 .72.456 1.331 1.098 1.553h-.95c-.909 0-1.641.733-1.641 1.643v12.246c0 .91.732 1.642 1.642 1.642h59.739c.91 0 1.642-.732 1.642-1.642v-12.246c0-.91-.733-1.643-1.642-1.643h-1.553a1.643 1.643 0 0 0 1.108-1.553c2.33-4.082 1.716-8.164 0-12.246l-1.853-1.439c-10.062-9.654-15.071-19.513-14.875-29.168 0-.56-.33-1.035-.82-1.295h7.982a1.38 1.38 0 0 0 1.385-1.385v-3.205c0-12.81-8.483-13.951-10.02-14.047 4.62-3.692 7.587-9.37 7.587-15.739 0-11.117-9.014-20.13-20.13-20.13z"/><path d="M644.08-380.73h180.08v43.577H644.08z" fill="url('#de')" opacity=".376" transform="translate(789.683 371.15) scale(.31655)"/><path d="m693.36-516.4 74.444-5.651c-3.14 40.593 56.713 90.202 57.22 93.667h-177.65c49.148-45.374 55.498-82.539 45.989-88.016z" fill="url('#ay')" opacity=".515" transform="translate(789.683 371.15) scale(.31655)"/><path d="m701.71-585.33 67.783-.187c2.671 0 23.424 5.58 23.424 19.842s-7.899 23.214-22.16 23.214l-83.049.21c-14.261 0-27.047-9.951-24.478-23.424 3.37-17.677 23.797-21.34 38.48-19.655z" fill="url('#az')" opacity=".515" transform="translate(789.683 371.15) scale(.31655)"/><path d="M727.89-690.79c-28.82-.398-52.662 30.528-44.906 58.312 5.546 26.082 36.404 43.35 61.5 33.781 25.544-8.145 39.853-40.702 27.5-64.781-7.64-16.628-25.68-28.099-44.094-27.312z" fill="url('#ba')" opacity=".685" transform="translate(789.683 371.15) scale(.31655)"/><path d="M663.95-438.57h155.53a27.061 27.061 0 0 1 27.061 27.061 27.061 27.061 0 0 1-27.061 27.061H663.95a27.061 27.061 0 0 1-27.061-27.061 27.061 27.061 0 0 1 27.061-27.061" fill="url('#ax')" opacity=".515" transform="translate(789.683 371.15) scale(.31655)"/><path d="M770.535 48.99c-9.439 0-17.268 7.66-17.477 17.1-.109 4.903 1.863 9.327 5.104 12.446-3.432 3.2-6.38 7.607-8.586 12.837l16.67 18.746-5.342 4.754-13.916-15.65c-1.018 4.123-1.62 8.556-1.722 13.176-.241 10.922 2.35 20.812 6.744 27.97-2.82.687-4.944 3.203-5.01 6.224a6.23 6.23 0 0 0 3.348 5.704h-1.694c-3.551 0-6.472 2.857-6.55 6.408-.063 2.822 1.69 5.206 4.195 6.066h-2.372c-4.237 0-7.725 3.412-7.818 7.65s3.242 7.65 7.48 7.65h5.207c1.049 1.062 5.178 4.34 4.456 12.017-.787 8.377-8.333 13.34-10.14 14.708-.636.567-.84.342-1.024.874l-.398 18.028c-5.336.095-9.697 4.415-9.816 9.773-.084 3.822 2.014 7.119 5.16 8.729h-5.924a.895.895 0 0 0-.894.87l-.433 19.632c-.01.483.371.87.855.87h79.83c.484 0 .88-.387.89-.87l.434-19.632a.844.844 0 0 0-.851-.87h-6.637c3.217-1.61 5.461-4.907 5.546-8.729.116-5.238-3.867-9.486-9.028-9.76l.398-18.04a.85.85 0 0 0-.178-.544c-6.332-5.063-17.849-17.233-9.292-26.915a.741.741 0 0 0-.035-.142h4.597c4.237 0 7.725-3.412 7.818-7.65s-3.242-7.649-7.48-7.649h-3.084c2.541-.86 4.396-3.245 4.46-6.066a6.226 6.226 0 0 0-6.268-6.408h-1.69c2.09-1.063 3.546-3.212 3.6-5.704a6.226 6.226 0 0 0-6.045-6.405c4.643-7.143 7.634-16.958 7.873-27.789.337-15.227-4.847-28.45-12.718-35.057 2.7-3.008 4.383-6.945 4.478-11.254a16.656 16.656 0 0 0-16.72-17.099z" stroke="#525252" stroke-width=".06299345"/><path d="M127.17-727.14h111.05a10.719 10.719 0 0 1 10.719 10.719 10.719 10.719 0 0 1-10.719 10.719H127.17a10.719 10.719 0 0 1-10.719-10.719 10.719 10.719 0 0 1 10.719-10.719" fill="url('#x')" opacity=".515" transform="translate(712.72 370.89) scale(.31655)"/><path d="M114.27-689.85h136.95a11.728 11.728 0 0 1 11.728 11.728 11.728 11.728 0 0 1-11.728 11.728H114.27a11.728 11.728 0 0 1-11.728-11.728 11.728 11.728 0 0 1 11.728-11.728" fill="url('#z')" opacity=".515" transform="translate(712.72 370.89) scale(.31655)"/><path d="M96.808-650.72h170.9a13.669 13.669 0 0 1 13.669 13.669 13.669 13.669 0 0 1-13.669 13.669h-170.9a13.669 13.669 0 0 1-13.669-13.669 13.669 13.669 0 0 1 13.669-13.669" fill="url('#y')" opacity=".515" transform="translate(712.72 370.89) scale(.31655)"/><path d="M207.47-917.72c-14.633 9.824-34.65 10.378-49.875 1.688-16.341 10.84-27.153 20.103-34.156 38.062 15.881 17.868 32.56 36.363 48.42 54.249-6.584 5.93-13.176 11.629-19.809 17.504-12.082-13.484-24.876-27.52-36.924-41.034-5.93 38.064-.921 87.29 20.094 120.06h98.219c23.152-36.408 27.18-82.943 17.535-124.38-6.503-25.817-19.305-52.485-43.129-66.406l-.375.25z" fill="url('#aa')" opacity=".685" transform="translate(712.72 370.89) scale(.31655)"/><path d="M180.37-1011.5c-28.82-.398-52.662 30.528-44.906 58.313 5.546 26.082 36.404 43.35 61.5 33.781 25.544-8.145 39.853-40.702 27.5-64.781-7.64-16.628-25.68-28.099-44.094-27.313z" fill="url('#ab')" opacity=".685" transform="translate(712.72 370.89) scale(.31655)"/><path d="M91.982-472.27h180.58a27.061 27.061 0 0 1 27.061 27.061 27.061 27.061 0 0 1-27.061 27.061H91.982a27.061 27.061 0 0 1-27.061-27.061 27.061 27.061 0 0 1 27.061-27.061" fill="url('#ac')" opacity=".515" transform="translate(712.72 370.89) scale(.31655)"/><path d="M64.095-397.43h239.27a5.294 5.294 0 0 1 5.294 5.294v49.9a5.294 5.294 0 0 1-5.294 5.293H64.095a5.294 5.294 0 0 1-5.294-5.294v-49.899a5.294 5.294 0 0 1 5.294-5.294" fill="url('#cr')" opacity=".356" transform="translate(712.72 370.89) scale(.31655)"/><path d="M95.588-514.71h180.08v54.347H95.588z" fill="url('#cs')" opacity=".376" transform="translate(712.72 370.89) scale(.31655)"/><path d="m115.7-602.6 126.14.811c-16.064 43.824 14.708 64.353 32.448 87.204H96.638c52.379-37.835 35.034-80.385 19.063-88.016z" fill="url('#ad')" opacity=".515" transform="translate(712.72 370.89) scale(.31655)"/><path d="M669.986 22.948c-5.403 0-9.784 4.39-9.784 9.793 0 .679.067 1.339.198 1.979h-31.608c-.497.103-.632.412-.5.874l15.895 55.659h3.769a6.543 6.543 0 0 0-1.336 3.808c-.055 2.492 1.302 4.636 3.344 5.698h-1.692c-3.55 0-6.47 2.86-6.548 6.41-.063 2.822 1.69 5.204 4.194 6.064h-2.374c-4.238 0-7.721 3.409-7.815 7.647s3.24 7.656 7.478 7.656h5.204c9.366 9 3.018 71.506-5.679 78.001-.636.568-.844.349-1.028.88l-.396 18.025c-5.337.094-9.695 4.415-9.813 9.773-.085 3.822 2.008 7.125 5.154 8.735h-5.916a.9.9 0 0 0-.9.87l-.436 19.627c-.01.483.378.87.861.87h79.83c.484 0 .88-.387.891-.87l.435-19.627a.844.844 0 0 0-.85-.87h-6.638c3.217-1.61 5.455-4.913 5.54-8.735.115-5.238-3.86-9.489-9.022-9.764l.396-18.033a.852.852 0 0 0-.179-.544c-6.332-5.063-17.845-68.514-9.288-78.198-.007-.048-.024-.09-.04-.138h4.6c4.238 0 7.72-3.419 7.815-7.657s-3.241-7.646-7.479-7.646h-3.086c2.541-.861 4.399-3.243 4.461-6.064a6.232 6.232 0 0 0-6.271-6.41h-1.682c2.09-1.063 3.546-3.207 3.601-5.698a6.262 6.262 0 0 0-1.167-3.809h4.243l15.897-55.668c.15-.541-.01-.865-.623-.867h-32.07c.132-.64.209-1.3.209-1.978 0-5.403-4.391-9.794-9.794-9.794z" stroke="#525252" stroke-width=".06299345"/><path d="M-2042.9-573.4h180.58a27.061 27.061 0 0 1 27.061 27.061 27.061 27.061 0 0 1-27.061 27.061h-180.58a27.061 27.061 0 0 1-27.061-27.061A27.061 27.061 0 0 1-2042.9-573.4" fill="url('#aq')" opacity=".515" transform="translate(1288.145 402.618) scale(.31655)"/><path d="M-2070.8-498.56h239.27a5.294 5.294 0 0 1 5.294 5.294v49.9a5.294 5.294 0 0 1-5.294 5.293h-239.27a5.294 5.294 0 0 1-5.294-5.294v-49.899a5.294 5.294 0 0 1 5.294-5.294" fill="url('#cw')" opacity=".356" transform="translate(1288.145 402.618) scale(.31655)"/><path d="M-2039.3-615.84h180.08v54.347h-180.08z" fill="url('#cv')" opacity=".376" transform="translate(1288.145 402.618) scale(.31655)"/><path d="m-2019.2-866.11 126.14 2.308c-16.064 124.68 14.708 183.08 32.448 248.09h-177.65c52.379-107.64 35.034-228.69 19.063-250.4z" fill="url('#ap')" opacity=".515" transform="translate(1288.145 402.618) scale(.31655)"/><path d="M-2004.1-997.44h101.74a15.374 15.374 0 0 1 15.374 15.374v7.342a15.374 15.374 0 0 1-15.374 15.374h-101.74a15.374 15.374 0 0 1-15.374-15.374v-7.342a15.374 15.374 0 0 1 15.374-15.374" fill="url('#ao')" opacity=".515" transform="translate(1288.145 402.618) scale(.31655)"/><path d="M-2003.7-953.82h99.651a32.182 12.783 0 0 1 32.182 12.783 32.182 12.783 0 0 1-32.182 12.783h-99.651a32.182 12.783 0 0 1-32.182-12.783 32.182 12.783 0 0 1 32.182-12.783" fill="url('#an')" opacity=".515" transform="translate(1288.145 402.618) scale(.31655)"/><path d="M-2011-912.8h118.54a38.283 15.158 0 0 1 38.283 15.158 38.283 15.158 0 0 1-38.283 15.158H-2011a38.283 15.158 0 0 1-38.283-15.158A38.283 15.158 0 0 1-2011-912.8" fill="url('#am')" opacity=".515" transform="translate(1288.145 402.618) scale(.31655)"/><path d="m-2080.8-1159.2 256.8-3.238c-13.442 54.798-33.884 131.38-48.582 172.78l-159.64.648c-6.075-21.741-50.876-162.68-48.582-170.19z" fill="url('#al')" opacity=".451" transform="translate(1288.145 402.618) scale(.31655)"/><path transform="matrix(.37524 0 0 .4333 972.649 456.264)" d="M-831.74-973.42a25.199 25.199 0 1 1 50.396-.238" fill="url('#g')" opacity=".451"/><path d="M568.373.049a1.36 1.36 0 0 0-1.365 1.365v8.903h-8.359c-.841 0-1.523.672-1.523 1.513v13.216c0 .841.682 1.523 1.523 1.523h8.36v8.122h-30.993c-.496.103-.637.408-.505.87l15.897 55.663h3.77a6.543 6.543 0 0 0-1.336 3.808c-.056 2.491 1.3 4.636 3.343 5.698h-1.692c-3.55 0-6.47 2.86-6.548 6.41-.063 2.821 1.69 5.203 4.194 6.064h-2.374c-4.238 0-7.721 3.409-7.815 7.646s3.24 7.657 7.478 7.657h5.204c9.366 9 3.018 71.506-5.678 78.001-.637.568-.845.348-1.03.88l-.395 18.024c-5.336.095-9.694 4.416-9.813 9.774-.085 3.822 2.008 7.125 5.154 8.735h-5.916a.9.9 0 0 0-.9.87l-.435 19.626c-.011.484.377.87.86.87h79.831c.483 0 .88-.386.89-.87l.436-19.626a.844.844 0 0 0-.851-.87h-6.638c3.217-1.61 5.455-4.913 5.54-8.735.116-5.238-3.86-9.49-9.022-9.764l.396-18.033a.852.852 0 0 0-.178-.544c-6.333-5.063-17.846-68.515-9.29-78.198-.006-.049-.023-.091-.039-.138h4.6c4.238 0 7.721-3.42 7.815-7.657s-3.24-7.647-7.479-7.647h-3.086c2.541-.86 4.399-3.243 4.462-6.063a6.232 6.232 0 0 0-6.272-6.41h-1.682c2.09-1.063 3.546-3.207 3.601-5.698a6.262 6.262 0 0 0-1.167-3.809h4.244l15.896-55.662c.15-.541-.01-.868-.623-.87h-31.576V26.57h8.755c.841 0 1.513-.682 1.513-1.523V11.832c0-.842-.672-1.514-1.513-1.514h-8.755V1.415A1.36 1.36 0 0 0 585.922.05h-17.549z" stroke="#525252" stroke-width=".06299345"/><path d="M-906.38-380.76h180.58a27.061 27.061 0 0 1 27.061 27.061 27.061 27.061 0 0 1-27.061 27.061h-180.58a27.061 27.061 0 0 1-27.061-27.061 27.061 27.061 0 0 1 27.061-27.061" fill="url('#ak')" opacity=".515" transform="translate(835.592 341.638) scale(.31655)"/><path d="M-934.26-305.92h239.27a5.294 5.294 0 0 1 5.294 5.294v49.9a5.294 5.294 0 0 1-5.294 5.293h-239.27a5.294 5.294 0 0 1-5.294-5.294v-49.899a5.294 5.294 0 0 1 5.294-5.294" fill="url('#cu')" opacity=".356" transform="translate(835.592 341.638) scale(.31655)"/><path d="M-902.77-423.2h180.08v54.347h-180.08z" fill="url('#ct')" opacity=".376" transform="translate(835.592 341.638) scale(.31655)"/><path d="m-882.66-673.47 126.14 2.308c-16.064 124.68 14.708 183.08 32.448 248.09h-177.65c52.379-107.64 35.034-228.69 19.063-250.4z" fill="url('#aj')" opacity=".515" transform="translate(835.592 341.638) scale(.31655)"/><path d="M-867.52-804.8h101.74a15.374 15.374 0 0 1 15.374 15.374v7.342a15.374 15.374 0 0 1-15.374 15.374h-101.74a15.374 15.374 0 0 1-15.374-15.374v-7.342A15.374 15.374 0 0 1-867.52-804.8" fill="url('#ai')" opacity=".515" transform="translate(835.592 341.638) scale(.31655)"/><path d="M-867.13-761.19h99.651a32.182 12.783 0 0 1 32.182 12.783 32.182 12.783 0 0 1-32.182 12.783h-99.651a32.182 12.783 0 0 1-32.182-12.783 32.182 12.783 0 0 1 32.182-12.783" fill="url('#ah')" opacity=".515" transform="translate(835.592 341.638) scale(.31655)"/><path d="M-874.41-720.16h118.54a38.283 15.158 0 0 1 38.283 15.158 38.283 15.158 0 0 1-38.283 15.158h-118.54a38.283 15.158 0 0 1-38.283-15.158 38.283 15.158 0 0 1 38.283-15.158" fill="url('#ag')" opacity=".515" transform="translate(835.592 341.638) scale(.31655)"/><path d="m-944.22-966.53 256.8-1.105c-13.442 54.798-33.884 129.78-48.582 171.19l-159.64.114c-6.075-21.74-50.876-162.68-48.582-170.19z" fill="url('#af')" opacity=".451" transform="translate(835.592 341.638) scale(.31655)"/><path d="M-791.26-1077.8c-17.625.898-35.403.285-53.094.344-3.1.386-2.24 6.015-2.031 11.438v20.969c-9.846.239-19.872-.445-29.625.281-2.419 1.743-2.117 8.839-1.594 12.625.41 11.018-.758 22.372.469 33.22-2.69 3.415 30.379.647 30.75 2.152.308 9.036-.451 19.362.093 28.348l59.717-.267c.088-9.668.252-19.32.252-29.015 10.375-.45 21.122.827 31.312-.5 3.05-4.1.085-10.59 1.125-15.437-.235-9.92.44-20.017-.28-29.844.819-2.602-20.833-1.296-32.157-1.563-.329-10.412.607-21.106-.375-31.375-1.248-1.109-2.856-1.402-4.562-1.375z" fill="url('#ae')" opacity=".451" transform="translate(835.592 341.638) scale(.31655)"/><path d="M-705.86-1173.1a4.3 4.3 0 0 1 4.313 4.313v28.125h26.406c2.657 0 4.812 2.123 4.812 4.78v41.75a4.812 4.812 0 0 1-4.813 4.813h-26.406v25.656h97.906c1.568.325 2.012 1.29 1.594 2.75l-50.219 175.84h-11.906c2.544 3.362 4.12 7.522 4.22 12.031.173 7.871-4.112 14.644-10.563 18h5.344c11.218 0 20.439 9.033 20.688 20.25.197 8.913-5.34 16.438-13.25 19.156h7.5c13.387 0 24.39 10.77 24.688 24.156s-10.238 24.188-23.625 24.188h-16.438c-29.59 28.433-9.535 225.89 17.938 246.41 2.01 1.793 2.668 1.1 3.25 2.781l1.25 56.938c16.858.299 30.625 13.95 31 30.875.267 12.075-6.343 22.51-16.281 27.594h18.688c1.527 0 2.81 1.223 2.844 2.75l1.375 62c.034 1.527-1.192 2.75-2.72 2.75h-252.19a2.815 2.815 0 0 1-2.812-2.75l-1.375-62a2.666 2.666 0 0 1 2.688-2.75h20.969c-10.163-5.085-17.233-15.519-17.5-27.594-.366-16.548 12.195-29.976 28.5-30.844l-1.25-56.969a2.69 2.69 0 0 1 .562-1.718c20.005-15.993 56.376-216.44 29.344-247.03.022-.155.074-.289.125-.438h-14.53c-13.388 0-24.392-10.8-24.689-24.188s10.238-24.156 23.625-24.156h9.75c-8.027-2.72-13.896-10.245-14.094-19.156-.248-11.217 8.596-20.25 19.812-20.25h5.313c-6.6-3.356-11.201-10.129-11.375-18-.1-4.515 1.277-8.669 3.687-12.03h-13.406l-50.219-175.84c-.472-1.71.031-2.743 1.97-2.75h99.75v-25.657h-27.657c-2.658 0-4.781-2.154-4.781-4.812v-41.75a4.76 4.76 0 0 1 4.781-4.782h27.656v-28.125a4.3 4.3 0 0 1 4.313-4.312h55.438z" fill="url('#dv')" stroke="#525252" stroke-width=".199" transform="translate(712.72 371.43) scale(.31655)"/><path d="M-811.79-816.02h158.21a27.866 21.673 0 0 1 27.866 21.673v5.883a27.866 21.673 0 0 1-27.866 21.673h-158.21a27.866 21.673 0 0 1-27.866-21.673v-5.883a27.866 21.673 0 0 1 27.866-21.673" fill="url('#du')" opacity=".515" transform="translate(712.72 371.43) scale(.31655)"/><path transform="matrix(-.31655 0 0 .31655 712.72 371.43)" d="M643.64-474.78h180.58a27.061 27.061 0 0 1 27.061 27.061 27.061 27.061 0 0 1-27.061 27.061H643.64a27.061 27.061 0 0 1-27.061-27.061 27.061 27.061 0 0 1 27.061-27.061" fill="url('#bz')" opacity=".515"/><path transform="matrix(-.31655 0 0 .31655 712.72 371.43)" d="M615.75-399.94h239.27a5.294 5.294 0 0 1 5.294 5.294v49.9a5.294 5.294 0 0 1-5.294 5.293H615.75a5.294 5.294 0 0 1-5.294-5.294v-49.899a5.294 5.294 0 0 1 5.294-5.294" fill="url('#dt')" opacity=".356"/><path transform="matrix(-.31655 0 0 .31655 712.72 371.43)" d="M647.24-517.22h180.08v54.347H647.24z" fill="url('#ds')" opacity=".376"/><path d="m-667.35-767.49-126.14 2.308c16.064 124.68-14.708 183.08-32.448 248.09h177.65c-52.379-107.64-35.034-228.69-19.063-250.4z" fill="url('#by')" opacity=".515" transform="translate(712.72 371.43) scale(.31655)"/><path transform="matrix(-.31655 0 0 .31655 712.72 371.43)" d="M682.49-898.82h101.74a15.374 15.374 0 0 1 15.374 15.374v7.342a15.374 15.374 0 0 1-15.374 15.374H682.49a15.374 15.374 0 0 1-15.374-15.374v-7.342a15.374 15.374 0 0 1 15.374-15.374" fill="url('#bx')" opacity=".515"/><path transform="matrix(-.31655 0 0 .31655 712.72 371.43)" d="M682.88-855.2h99.651a32.182 12.783 0 0 1 32.182 12.783 32.182 12.783 0 0 1-32.182 12.783H682.88a32.182 12.783 0 0 1-32.182-12.783A32.182 12.783 0 0 1 682.88-855.2" fill="url('#bw')" opacity=".515"/><path d="M-797.59-859.71h130.6a23.003 20.274 0 0 1 23.003 20.274v5.503a23.003 20.274 0 0 1-23.003 20.274h-130.6a23.003 20.274 0 0 1-23.003-20.274v-5.503a23.003 20.274 0 0 1 23.003-20.274" fill="url('#dr')" opacity=".515" transform="translate(712.72 371.43) scale(.31655)"/><path transform="matrix(-.31655 0 0 .31655 712.72 371.43)" d="M675.6-814.17h118.54a38.283 15.158 0 0 1 38.283 15.158 38.283 15.158 0 0 1-38.283 15.158H675.6a38.283 15.158 0 0 1-38.283-15.158A38.283 15.158 0 0 1 675.6-814.17" fill="url('#bv')" opacity=".515"/><path d="m-605.79-1060.5-256.8-1.105c13.442 54.798 33.884 129.78 48.582 171.19l159.64.114c6.075-21.74 50.876-162.68 48.582-170.19z" fill="url('#bu')" opacity=".451" transform="translate(712.72 371.43) scale(.31655)"/><path d="M-758.75-1171.8c17.625.898 35.403.285 53.094.344 3.1.386 2.24 6.015 2.031 11.438v20.969c9.846.239 19.872-.445 29.625.281 2.419 1.743 2.117 8.839 1.594 12.625-.41 11.018.758 22.372-.469 33.22 2.69 3.415-30.379.647-30.75 2.151-.308 9.037.451 19.362-.093 28.348l-59.717-.266c-.088-9.668-.252-19.32-.252-29.015-10.375-.45-21.122.827-31.312-.5-3.05-4.1-.085-10.59-1.125-15.438.235-9.92-.44-20.017.28-29.844-.819-2.602 20.833-1.296 32.157-1.563.329-10.412-.607-21.106.375-31.375 1.248-1.109 2.856-1.402 4.562-1.375z" fill="url('#bt')" opacity=".451" transform="translate(712.72 371.43) scale(.31655)"/><path d="M-787.22-897.84h108.28a19.071 19.575 0 0 1 19.071 19.575v5.313a19.071 19.575 0 0 1-19.071 19.575h-108.28a19.071 19.575 0 0 1-19.071-19.575v-5.313a19.071 19.575 0 0 1 19.071-19.575" fill="url('#dq')" opacity=".515" transform="translate(712.72 371.43) scale(.31655)"/><path d="M-832.9-451.73h198.84a21.056 21.673 0 0 1 21.056 21.673v5.883a21.056 21.673 0 0 1-21.056 21.673H-832.9a21.056 21.673 0 0 1-21.056-21.673v-5.883A21.056 21.673 0 0 1-832.9-451.73" fill="url('#dp')" opacity=".515" transform="translate(712.72 371.43) scale(.31655)"/><path d="M-1026.8-1105.1c17.067 0 30.906 13.871 30.906 30.938a30.93 30.93 0 0 1-.625 6.25h99.854c1.567.325 1.994 1.302 1.576 2.762L-945.3-889.32h-11.906c2.544 3.362 4.119 7.522 4.218 12.03.175 7.872-4.11 14.645-10.562 18h5.344c11.218 0 20.44 9.033 20.688 20.25.197 8.914-5.34 16.439-13.25 19.157h7.5c13.387 0 24.391 10.769 24.688 24.156s-10.238 24.188-23.625 24.188h-16.438c-29.589 28.433-9.535 225.89 17.938 246.41 2.01 1.793 2.668 1.1 3.25 2.781l1.25 56.938c16.858.298 30.626 13.95 31 30.875.268 12.075-6.343 22.509-16.28 27.594h18.687c1.527 0 2.81 1.223 2.844 2.75l1.375 62c.034 1.527-1.192 2.75-2.719 2.75h-252.19a2.815 2.815 0 0 1-2.812-2.75l-1.375-62a2.666 2.666 0 0 1 2.687-2.75h20.97c-10.164-5.085-17.234-15.519-17.5-27.594-.367-16.548 12.194-29.976 28.5-30.844l-1.25-56.969a2.692 2.692 0 0 1 .562-1.719c20.005-15.993 56.376-216.44 29.344-247.03.021-.154.073-.288.125-.437h-14.531c-13.387 0-24.391-10.8-24.688-24.188s10.238-24.156 23.625-24.156h9.75c-8.028-2.72-13.896-10.245-14.094-19.156-.249-11.217 8.595-20.25 19.812-20.25h5.312c-6.6-3.357-11.2-10.13-11.375-18-.1-4.516 1.277-8.67 3.688-12.031h-13.406l-50.218-175.86c-.473-1.71.028-2.731 1.966-2.739h101.31a30.94 30.94 0 0 1-.656-6.25c0-17.067 13.87-30.938 30.938-30.938z" fill="url('#db')" stroke="#525252" stroke-width=".199" transform="translate(712.72 372.778) scale(.31655)"/><path transform="matrix(-.31655 0 0 .31655 712.72 372.778)" d="M936.72-479.04h180.58a27.061 27.061 0 0 1 27.061 27.061 27.061 27.061 0 0 1-27.061 27.061H936.72a27.061 27.061 0 0 1-27.061-27.061 27.061 27.061 0 0 1 27.061-27.061" fill="url('#ar')" opacity=".515"/><path transform="matrix(-.31655 0 0 .31655 712.72 372.778)" d="M908.84-404.2h239.27a5.294 5.294 0 0 1 5.294 5.294v49.9a5.294 5.294 0 0 1-5.294 5.293H908.84a5.294 5.294 0 0 1-5.294-5.294v-49.899a5.294 5.294 0 0 1 5.294-5.294" fill="url('#dc')" opacity=".356"/><path transform="matrix(-.31655 0 0 .31655 712.72 372.778)" d="M940.33-521.48h180.08v54.347H940.33z" fill="url('#dd')" opacity=".376"/><path d="m-960.44-771.75-126.14 2.308c16.064 124.68-14.708 183.08-32.448 248.09h177.65c-52.379-107.64-35.034-228.69-19.063-250.4z" fill="url('#as')" opacity=".515" transform="translate(712.72 372.778) scale(.31655)"/><path transform="matrix(-.31655 0 0 .31655 712.72 372.778)" d="M975.57-903.09h101.74a15.374 15.374 0 0 1 15.374 15.374v7.342A15.374 15.374 0 0 1 1077.31-865H975.57a15.374 15.374 0 0 1-15.374-15.374v-7.342a15.374 15.374 0 0 1 15.374-15.374" fill="url('#at')" opacity=".515"/><path transform="matrix(-.31655 0 0 .31655 712.72 372.778)" d="M975.97-859.47h99.651a32.182 12.783 0 0 1 32.182 12.783 32.182 12.783 0 0 1-32.182 12.783H975.97a32.182 12.783 0 0 1-32.182-12.783 32.182 12.783 0 0 1 32.182-12.783" fill="url('#au')" opacity=".515"/><path transform="matrix(-.31655 0 0 .31655 712.72 372.778)" d="M968.68-818.44h118.54a38.283 15.158 0 0 1 38.283 15.158 38.283 15.158 0 0 1-38.283 15.158H968.68a38.283 15.158 0 0 1-38.283-15.158 38.283 15.158 0 0 1 38.283-15.158" fill="url('#av')" opacity=".515"/><path d="m-898.88-1064.8-256.8-3.238c13.442 54.798 33.884 131.38 48.582 172.78l159.64.648c6.075-21.741 50.876-162.68 48.582-170.19z" fill="url('#aw')" opacity=".451" transform="translate(712.72 372.778) scale(.31655)"/><path transform="matrix(-.37524 0 0 .4333 85.001 456.293)" d="M-831.74-973.42a25.199 25.199 0 1 1 50.396-.238" fill="url('#g')" opacity=".451"/><path d="M-1127.3-457.34h200.99a19.264 24.592 0 0 1 19.264 24.592v2.602a19.264 24.592 0 0 1-19.264 24.592h-200.99a19.264 24.592 0 0 1-19.264-24.592v-2.602a19.264 24.592 0 0 1 19.264-24.592" fill="url('#da')" opacity=".515" transform="translate(712.72 372.778) scale(.31655)"/><path d="M-1105.2-820.47h158.21a27.866 21.673 0 0 1 27.866 21.673v5.883a27.866 21.673 0 0 1-27.866 21.673h-158.21a27.866 21.673 0 0 1-27.866-21.673v-5.883a27.866 21.673 0 0 1 27.866-21.673" fill="url('#cz')" opacity=".515" transform="translate(712.72 372.778) scale(.31655)"/><path d="M-1097.6-863.21h143.74a15.319 16.787 0 0 1 15.319 16.787v9.69a15.319 16.787 0 0 1-15.319 16.787h-143.74a15.319 16.787 0 0 1-15.319-16.787v-9.69a15.319 16.787 0 0 1 15.319-16.787" fill="url('#cy')" opacity=".515" transform="translate(712.72 372.778) scale(.31655)"/><path d="M-1085.9-890.33h119.34a12.718 14.989 0 0 1 12.718 14.989v1.08a12.718 14.989 0 0 1-12.718 14.99h-119.34a12.718 14.989 0 0 1-12.718-14.99v-1.08a12.718 14.989 0 0 1 12.718-14.989" fill="url('#cx')" opacity=".515" transform="translate(712.72 372.778) scale(.31655)"/><path d="M-1344.5-1021.3c29.817 0 54.551 24.2 55.211 54.016.343 15.491-5.886 29.468-16.126 39.321 10.843 10.111 20.153 24.032 27.126 40.553l-52.66 59.218 16.873 15.019 43.962-49.437c3.215 13.023 5.115 27.028 5.438 41.623.763 34.501-7.425 65.746-21.303 88.36 8.905 2.168 15.617 10.116 15.828 19.66.174 7.871-4.125 14.661-10.577 18.018h5.35c11.218 0 20.445 9.028 20.693 20.245.197 8.913-5.342 16.444-13.252 19.163h7.491c13.387 0 24.404 10.778 24.7 24.165s-10.242 24.165-23.63 24.165h-16.45c-3.314 3.357-16.357 13.711-14.078 37.964 2.487 26.465 26.326 42.145 32.033 46.463 2.01 1.793 2.654 1.081 3.235 2.762l1.257 56.953c16.858.299 30.634 13.947 31.01 30.872.266 12.075-6.363 22.49-16.302 27.574h18.715a2.826 2.826 0 0 1 2.825 2.75l1.368 62.017a2.677 2.677 0 0 1-2.7 2.75h-252.19a2.815 2.815 0 0 1-2.812-2.75l-1.369-62.017a2.667 2.667 0 0 1 2.688-2.75h20.967c-10.163-5.085-17.253-15.499-17.52-27.574-.366-16.548 12.215-29.966 28.52-30.834l-1.257-56.99a2.685 2.685 0 0 1 .56-1.717c20.005-15.993 56.386-54.438 29.354-85.025.022-.154.06-.299.112-.448h-14.52c-13.388 0-24.405-10.778-24.7-24.165s10.241-24.165 23.63-24.165h9.742c-8.027-2.72-13.888-10.25-14.086-19.163-.248-11.217 8.58-20.245 19.797-20.245h5.338c-6.6-3.356-11.199-10.147-11.373-18.018-.243-10.985 8.218-19.86 19.1-20.233-14.668-22.568-24.117-53.573-24.874-87.787-1.064-48.103 15.312-89.875 40.18-110.75-8.53-9.502-13.848-21.938-14.149-35.55-.66-29.817 23.005-54.016 52.822-54.016z" fill="url('#cj')" stroke="#525252" stroke-width=".199" transform="translate(714.899 372.04) scale(.31655)"/><path transform="matrix(-.31655 0 0 .31655 714.899 372.04)" d="M1289-731.58h111.05a10.719 10.719 0 0 1 10.719 10.719 10.719 10.719 0 0 1-10.719 10.719H1289a10.719 10.719 0 0 1-10.719-10.719A10.719 10.719 0 0 1 1289-731.58" fill="url('#q')" opacity=".515"/><path transform="matrix(-.31655 0 0 .31655 714.899 372.04)" d="M1276.1-694.29h136.95a11.728 11.728 0 0 1 11.728 11.728 11.728 11.728 0 0 1-11.728 11.728H1276.1a11.728 11.728 0 0 1-11.728-11.728 11.728 11.728 0 0 1 11.728-11.728" fill="url('#r')" opacity=".515"/><path transform="matrix(-.31655 0 0 .31655 714.899 372.04)" d="M1258.7-655.16h170.9a13.669 13.669 0 0 1 13.669 13.669 13.669 13.669 0 0 1-13.669 13.669h-170.9a13.669 13.669 0 0 1-13.669-13.669 13.669 13.669 0 0 1 13.669-13.669" fill="url('#s')" opacity=".515"/><path d="M-1369.3-922.16c15.254-.659 34.65-3.341 49.875 1.688 16.341 10.84 27.153 20.103 34.156 38.062-15.881 17.868-32.56 36.363-48.42 54.249 6.584 5.93 13.176 11.629 19.809 17.504 12.082-13.484 24.876-27.52 36.924-41.034 5.93 38.064.921 87.29-20.094 120.06h-98.219c-23.152-36.408-27.18-82.943-17.535-124.38 6.503-25.817 19.305-52.485 43.129-66.406l.375.25z" fill="url('#t')" opacity=".685" transform="translate(714.899 372.04) scale(.31655)"/><path d="M-1342.8-1017.2c28.82-.398 52.662 30.528 44.906 58.312-5.546 26.082-36.404 43.35-61.5 33.781-25.544-8.145-39.853-40.702-27.5-64.781 7.64-16.628 25.68-28.099 44.094-27.312z" fill="url('#u')" opacity=".685" transform="translate(714.899 372.04) scale(.31655)"/><path transform="matrix(-.31655 0 0 .31655 714.899 372.04)" d="M1253.8-476.71h180.58a27.061 27.061 0 0 1 27.061 27.061 27.061 27.061 0 0 1-27.061 27.061H1253.8a27.061 27.061 0 0 1-27.061-27.061 27.061 27.061 0 0 1 27.061-27.061" fill="url('#v')" opacity=".515"/><path transform="matrix(-.31655 0 0 .31655 714.899 372.04)" d="M1225.9-401.87h239.27a5.294 5.294 0 0 1 5.294 5.294v49.9a5.294 5.294 0 0 1-5.294 5.293H1225.9a5.294 5.294 0 0 1-5.294-5.294v-49.899a5.294 5.294 0 0 1 5.294-5.294" fill="url('#ck')" opacity=".356"/><path transform="matrix(-.31655 0 0 .31655 714.899 372.04)" d="M1257.4-519.15h180.08v54.347H1257.4z" fill="url('#cl')" opacity=".376"/><path d="m-1277.6-607.04-126.14.811c16.064 43.824-14.708 64.353-32.448 87.204h177.65c-52.379-37.835-35.034-80.385-19.063-88.016z" fill="url('#w')" opacity=".515" transform="translate(714.899 372.04) scale(.31655)"/><path d="M-1422.7-655.47h158.21a27.866 21.673 0 0 1 27.866 21.673v5.883a27.866 21.673 0 0 1-27.866 21.673h-158.21a27.866 21.673 0 0 1-27.866-21.673v-5.883a27.866 21.673 0 0 1 27.866-21.673" fill="url('#cm')" opacity=".515" transform="translate(714.899 372.04) scale(.31655)"/><path d="M-1367.8-945.94c-8.908 0-16.781 2.042-21.875 5.25a56.015 56.015 0 0 0 6.563 8.969c-3.205 2.69-6.253 5.741-9.157 9.094 4.718 4.294 13.88 7.187 24.47 7.187h47.843c8.776 0 16.587-1.998 21.688-5.125a93.131 93.131 0 0 0-7.093-7.406 52.525 52.525 0 0 0 9-11.5c-4.921-3.89-13.617-6.469-23.594-6.469h-47.844z" fill="url('#cn')" opacity=".515" transform="translate(714.899 372.04) scale(.31655)"/><path d="M-1408-701.57h130.29a22.947 18.505 0 0 1 22.947 18.505v10.384a22.947 18.505 0 0 1-22.947 18.505H-1408a22.947 18.505 0 0 1-22.947-18.505v-10.384A22.947 18.505 0 0 1-1408-701.57" fill="url('#co')" opacity=".515" transform="translate(714.899 372.04) scale(.31655)"/><path d="M-1397.9-739.86h108.95a19.19 17.73 0 0 1 19.19 17.73v10.621a19.19 17.73 0 0 1-19.19 17.73h-108.95a19.19 17.73 0 0 1-19.19-17.73v-10.621a19.19 17.73 0 0 1 19.19-17.73" fill="url('#cp')" opacity=".515" transform="translate(714.899 372.04) scale(.31655)"/><path d="M-1442.1-452.56h193.54a25.468 24.614 0 0 1 25.468 24.614 25.468 24.614 0 0 1-25.468 24.614h-193.54a25.468 24.614 0 0 1-25.468-24.614 25.468 24.614 0 0 1 25.468-24.614" fill="url('#cq')" opacity=".515" transform="translate(714.899 372.04) scale(.31655)"/><path d="M-1558.2-816.58a6.353 6.353 0 0 1 6.375 6.375v95.719a6.353 6.353 0 0 1-6.375 6.375h-8.219c6.6 5.655 10.75 14.057 10.75 23.469v5.563c0 16.33-12.54 29.608-28.562 30.78 3.534 3.344 5.844 8.929 5.844 15.281 0 8.526-4.145 15.68-9.844 17.875.658 55.716 22.011 108.65 42.781 161.69a27.932 27.932 0 0 1 14.125 24.344v5.032c0 9.51-4.699 17.889-11.906 22.938h10.938a3.587 3.587 0 0 1 3.594 3.593v53.844a3.587 3.587 0 0 1-3.594 3.594h-204.69a3.587 3.587 0 0 1-3.594-3.594v-53.844a3.587 3.587 0 0 1 3.594-3.593h15.72c-7.221-5.048-11.939-13.425-11.939-22.938v-5.032c0-2.026.251-4.004.656-5.906h-.062c.036-.071.058-.147.094-.218a27.837 27.837 0 0 1 5.78-11.812c31.083-66.208 35.155-115.92 43.626-168.31-5.436-2.414-9.344-9.386-9.344-17.656 0-6.517 2.436-12.221 6.125-15.531-14.853-2.257-26.188-15.028-26.188-30.531v-5.563a30.782 30.782 0 0 1 10.781-23.469h-5.094a6.353 6.353 0 0 1-6.375-6.375v-95.719a6.353 6.353 0 0 1 6.375-6.375h148.62z" fill="url('#cc')" stroke="#525252" stroke-width=".199" transform="translate(714.899 372.963) scale(.31655)"/><path transform="matrix(-.31655 0 0 .31655 714.899 372.963)" d="M1533.9-398.77h201.51v55.006H1533.9z" fill="url('#cd')" opacity=".376"/><path d="m-1593.7-602.99-82.227 2.785c3.467 68.795-48.262 140.24-48.822 146.11l187.56.27c-54.286-76.899-67.014-139.88-56.512-149.17z" fill="url('#m')" opacity=".515" transform="translate(714.899 372.963) scale(.31655)"/><path transform="matrix(-.31655 0 0 .31655 714.899 372.963)" d="M1567.5-450.75h140.52a29.174 14.359 0 0 1 29.174 14.359 29.174 14.359 0 0 1-29.174 14.359H1567.5a29.174 14.359 0 0 1-29.174-14.359 29.174 14.359 0 0 1 29.174-14.359" fill="url('#n')" opacity=".515"/><path transform="matrix(-.31655 0 0 .31655 714.899 372.963)" d="M1586.8-708.69h100.38a20.841 19.733 0 0 1 20.841 19.733 20.841 19.733 0 0 1-20.841 19.733H1586.8a20.841 19.733 0 0 1-20.841-19.733 20.841 19.733 0 0 1 20.841-19.733" fill="url('#o')" opacity=".515"/><path transform="matrix(-.31655 0 0 .31655 714.899 372.963)" d="M1600.9-653.41h72.177a14.985 12.824 0 0 1 14.985 12.824 14.985 12.824 0 0 1-14.985 12.824H1600.9a14.985 12.824 0 0 1-14.985-12.824 14.985 12.824 0 0 1 14.985-12.824" fill="url('#p')" opacity=".515"/><path transform="matrix(-.31655 0 0 .31655 714.899 372.963)" d="M1556.9-813.3h152.37v97.995H1556.9z" fill="url('#ce')" opacity=".376"/><path d="M-1670-722.82c-14.652 0-30.55 9.903-38.929 13.111 3.107 3.204 3.78-.271 7.846 1.304-5.27 2.69-4.585 5.152-7.199 8.7 7.76 4.295 20.864 7.385 38.282 7.385h78.697c14.434 0 24.335-1.606 32.725-4.732-2.566-4.222-4.704-8.864-8.72-11.14 6.568-.434 9.371 1.985 13.428-2.263-8.094-3.89-21.022-12.365-37.433-12.365H-1670z" fill="url('#cf')" opacity=".515" transform="translate(714.899 372.963) scale(.31655)"/><path d="M-1681-697.79h94.687a28.556 24.015 0 0 1 28.556 24.015v1.198a28.556 24.015 0 0 1-28.556 24.015H-1681a28.556 24.015 0 0 1-28.556-24.015v-1.198A28.556 24.015 0 0 1-1681-697.79" fill="url('#cg')" opacity=".515" transform="translate(714.899 372.963) scale(.31655)"/><path d="M-1679.8-643.02h88.817a11.363 14.074 0 0 1 11.363 14.074 11.363 14.074 0 0 1-11.363 14.074h-88.817a11.363 14.074 0 0 1-11.363-14.074 11.363 14.074 0 0 1 11.363-14.074" fill="url('#ch')" opacity=".515" transform="translate(714.899 372.963) scale(.31655)"/><path d="M-1713.8-427.56h164.19a14.378 14.074 0 0 1 14.378 14.074 14.378 14.074 0 0 1-14.378 14.074h-164.19a14.378 14.074 0 0 1-14.378-14.074 14.378 14.074 0 0 1 14.378-14.074" fill="url('#ci')" opacity=".515" transform="translate(714.899 372.963) scale(.31655)"/><path d="M-1949.2-819.75c13.769 17.61 23.281 8.443 27.156 18.422s118.18 21.493 135.62 25.485c7.54-1.553 38.742 28.356 13.562 35.938-8.318 2.505-11.625 9.969-11.625 9.969 5.023 3.882 12.062 4.645 13.562 13.969 0 0-1.605 13.102-7.75 17.969-8.143 6.449-50.352-2.23-54.25-2-25.577 1.507-33.836 42.506-28.375 44.375 0 0 40.249 45.59 59.375 65.406 35.887 37.18 35.456 104.42 1.937 115.75-15.768 5.328-9.967 20.999-8.187 25h3.344c24.826 7.903 29.625 17.184 29.156 34.406-.594 11.259-3.004 16.876-18.72 25.219h16a7.514 7.514 0 0 1 7.532 7.531v41.219a7.514 7.514 0 0 1-7.531 7.531h-206.78a7.514 7.514 0 0 1-7.532-7.531v-41.219a7.514 7.514 0 0 1 7.532-7.531h14.938c-10.961-4.19-18.688-10.73-18.688-24.22-1.437-20.71 7.916-31.18 29.156-35.405h1c.618-9.707 3.784-76.608-19.5-170.69-15.324-61.916-19.374-85.83-23.25-93.812s2.393-55.885 11.625-71.844c7.955-13.752 19.372-46.516 40.688-33.938z" fill="url('#df')" stroke="#525252" stroke-width=".199" transform="translate(712.72 370.89) scale(.31655)"/><path transform="matrix(-.31655 0 0 .31655 712.72 370.89)" d="M1797.6-446.41h171.08a16.715 16.715 0 0 1 16.715 16.715 16.715 16.715 0 0 1-16.715 16.715H1797.6a16.715 16.715 0 0 1-16.715-16.715 16.715 16.715 0 0 1 16.715-16.715" fill="url('#bb')" opacity=".515"/><path transform="matrix(-.31655 0 0 .31655 712.72 370.89)" d="M1782.9-386.7h198.61a4.255 4.255 0 0 1 4.255 4.255v40.104a4.255 4.255 0 0 1-4.255 4.255H1782.9a4.255 4.255 0 0 1-4.255-4.255v-40.104a4.255 4.255 0 0 1 4.255-4.255" fill="url('#dg')" opacity=".356"/><path d="M-1782.8-774.18s13.609 9.003 16.286 15.28c3.346 7.847-10.875 8.673-13.384 14.867s-7.11-4.543-40.989-3.717-102.89-.413-113.77-11.15-37.643-26.845-26.35-38.822 28.701-5.034 38.061-.413c12.548 6.195 140.98 23.54 140.14 23.953z" fill="url('#bc')" fill-rule="evenodd" opacity=".712" transform="translate(712.72 370.89) scale(.31655)"/><path d="M-1787.7-731s14.565 4.024 10.446 14.876-16.884 13.289-26.348 10.985-44.431-13.207-40.122-18.85 59.651-7.562 56.024-7.01z" fill="url('#bd')" fill-rule="evenodd" opacity=".546" transform="translate(712.72 370.89) scale(.31655)"/><path d="M-1861.1-612.81c2.463-24.363-91.276-42.138-115.72-.749 31.115 107.94 31.604 127.57 28.916 167.17h139.45c21.721-102.55-68.611-148.1-52.64-166.42z" fill="url('#be')" opacity=".508" transform="translate(712.72 370.89) scale(.31655)"/><path d="M-1869.4-792.87s29.201 13.516 20.943 49.967-33.85 44.637-52.825 36.897-89.079-44.362-80.438-63.316 119.59-25.398 112.32-23.548z" fill="url('#bf')" fill-rule="evenodd" opacity=".217" transform="translate(712.72 370.89) scale(.31655)"/><path d="m-1900.4-662.91 34.812 6c5.998 6.746 51.24 57.636 59.5 66.531 15.975 17.038 27.08 40.156 28.551 63.364-23.205 13.87-47.781 5.759-60.801-11.177-14.987-19.495-60.518-90.707-62.062-124.72zm34.812 6-3.531-3.969 4.062 4.063-.531-.094z" fill="url('#bg')" fill-rule="evenodd" opacity=".464" transform="translate(712.72 370.89) scale(.31655)"/><path d="M-1957.8-437.1h153.08a26.962 21.673 0 0 1 26.962 21.673v5.883a26.962 21.673 0 0 1-26.962 21.673h-153.08a26.962 21.673 0 0 1-26.962-21.673v-5.883A26.962 21.673 0 0 1-1957.8-437.1" fill="url('#dh')" opacity=".515" transform="translate(712.72 370.89) scale(.31655)"/><path d="M-1814.6-459.48s-10.831 6.885 8.755-12.852c3.992-4.022 11.487-2.146 19.81-16.018s7.525-27.633 7.525-35.957-26.357-44.39-54.101-30.518-26.138 56.815-25.648 72.501c1.506 48.184 46.283 27.589 43.659 22.844z" fill="url('#bh')" opacity=".705" transform="translate(712.72 370.89) scale(.31655)"/><path d="M-1834.3-700.88c-6.02.392-21.19 10.294-27.291 27.892-6.777 19.547-84.808-13.167-92.588-22.566-19.682-23.778 46.198-36.691 66.886-36.691s128.25 44.635 52.993 31.365z" fill="url('#bi')" opacity=".749" transform="translate(712.72 370.89) scale(.31655)"/><path d="M-1958.2-821.78c-15.508.017-24.694 25.146-31.406 36.75-9.232 15.959-15.5 63.861-11.625 71.844s7.926 31.896 23.25 93.812c23.285 94.079 20.119 160.98 19.5 170.69h-1l-.438.094h56.345a4.237 4.237 0 0 0 4.25-4.25v-339.62c-12.628-2.685-21.413-5.456-22.438-8.094-3.876-9.979-13.388-.796-27.157-18.406-3.33-1.965-6.409-2.816-9.28-2.813z" fill="url('#di')" transform="translate(712.72 370.89) scale(.31655)"/><path d="M-2134.6-699.19c35.119 0 63.625 28.475 63.625 63.594 0 20.096-9.34 38.026-23.906 49.688h1.406c1.43 0 32.208.106 32.375 44.406v10.125a4.357 4.357 0 0 1-4.375 4.375h-30.125c1.549.823 2.594 2.326 2.594 4.094-5.497 34.11 11.495 64.684 43.358 91.929 1.445 1.45 1.698 1.82 5.705 4.758 5.293 9.02 6.844 30.317-3.47 43.594h3a5.178 5.178 0 0 1 5.188 5.188v38.688a5.178 5.178 0 0 1-5.187 5.187h-188.72a5.178 5.178 0 0 1-5.188-5.187v-38.688a5.178 5.178 0 0 1 5.188-5.188h4.906c-11.274-15.493-7.844-31.539-3.5-43.594l5.852-4.544c31.787-30.498 47.612-61.645 46.992-92.143 0-1.767 1.046-3.27 2.594-4.094h-25.219a4.357 4.357 0 0 1-4.375-4.375v-10.125c0-40.465 26.798-44.072 31.656-44.375-14.596-11.66-23.969-29.598-23.969-49.719 0-35.119 28.475-63.594 63.594-63.594z" fill="url('#dl')" stroke="#525252" stroke-width=".199" transform="translate(712.72 370.89) scale(.31655)"/><path transform="matrix(-.31655 0 0 .31655 712.72 370.89)" d="M2049.1-380.01h180.08v43.577H2049.1z" fill="url('#dm')" opacity=".376"/><path d="m-2098.3-515.68-74.444-5.651c3.14 40.593-56.713 90.202-57.22 93.667h177.65c-49.148-45.374-55.498-82.539-45.989-88.016z" fill="url('#bp')" opacity=".515" transform="translate(712.72 370.89) scale(.31655)"/><path d="m-2106.7-584.6-67.783-.187c-2.671 0-23.424 5.58-23.424 19.842s7.899 23.214 22.16 23.214l83.049.21c14.261 0 27.047-9.951 24.478-23.424-3.37-17.677-23.797-21.34-38.48-19.655z" fill="url('#bq')" opacity=".515" transform="translate(712.72 370.89) scale(.31655)"/><path d="M-2132.9-690.06c28.82-.398 52.662 30.528 44.906 58.312-5.546 26.082-36.404 43.35-61.5 33.781-25.544-8.145-39.853-40.702-27.5-64.781 7.64-16.628 25.68-28.099 44.094-27.312z" fill="url('#br')" opacity=".685" transform="translate(712.72 370.89) scale(.31655)"/><path transform="matrix(-.31655 0 0 .31655 712.72 370.89)" d="M2068.9-437.84h155.53a27.061 27.061 0 0 1 27.061 27.061 27.061 27.061 0 0 1-27.061 27.061H2068.9a27.061 27.061 0 0 1-27.061-27.061 27.061 27.061 0 0 1 27.061-27.061" fill="url('#bs')" opacity=".515"/><path d="M-2158.8-593.76c-8.908 0-16.781.068-21.875 1.794 1.889 1.724 4.09 4.373 6.563 5.855-3.076.931-8.443.77-14.565 5.535 4.718 2.31 19.289 3.222 29.878 3.222h47.843c8.776 0 29.207.857 34.308-.825-6.527-8.636-16.242-7.266-18.942-7.847 3.516-1.82 4.474-3.643 6.94-5.928-4.92-2.093-12.329-1.806-22.306-1.806h-47.844z" fill="url('#dn')" opacity=".678" transform="translate(712.72 370.89) scale(.31655)"/><path d="M-2224.7-426.6h173.9a9.825 19.561 0 0 1 9.825 19.561v5.31a9.825 19.561 0 0 1-9.825 19.56h-173.9a9.825 19.561 0 0 1-9.825-19.56v-5.31a9.825 19.561 0 0 1 9.825-19.561" fill="url('#do')" opacity=".515" transform="translate(712.72 370.89) scale(.31655)"/><path d="M-2174.5-527.31h77.136a4.3 4.16 0 0 1 4.3 4.16 4.3 4.16 0 0 1-4.3 4.16h-77.136a4.3 4.16 0 0 1-4.3-4.16 4.3 4.16 0 0 1 4.3-4.16" fill="url('#dk')" opacity=".515" transform="translate(712.72 370.89) scale(.31655)"/></svg>